<?xml version="1.0" encoding="UTF-8" standalone="no"?>
<svg
   xmlns:dc="http://purl.org/dc/elements/1.1/"
   xmlns:cc="http://creativecommons.org/ns#"
   xmlns:rdf="http://www.w3.org/1999/02/22-rdf-syntax-ns#"
   xmlns:svg="http://www.w3.org/2000/svg"
   xmlns="http://www.w3.org/2000/svg"
   id="svg4"
   xml:space="preserve"
   viewBox="0 0 1024 768"
   y="0px"
   x="0px"
   version="1.1"><metadata
     id="metadata10"><rdf:RDF><cc:Work
         rdf:about=""><dc:format>image/svg+xml</dc:format><dc:type
           rdf:resource="http://purl.org/dc/dcmitype/StillImage" /></cc:Work></rdf:RDF></metadata><defs
     id="defs8" /><path
     id="path2"
     d="m205.62 323.78v0.01c-0.05-0.02-5.15 5.06-14.85 14.76l-14.79 14.78 5.4 20.14c2.96 11.07 5.42 20.16 5.45 20.18 0.03 0.03 3.29 0.92 7.25 1.97 3.96 1.04 7.2 1.9 7.21 1.89s-0.32-1.27-0.74-2.8c-0.41-1.54-0.77-2.81-0.79-2.83s-2.01-0.56-4.42-1.19c-2.41-0.64-4.38-1.16-4.39-1.16 0-0.01-1.93-7.18-4.27-15.93-2.35-8.75-4.26-15.92-4.26-15.92 0.01 0 5.78 1.54 12.83 3.43s13.93 3.73 15.3 4.1c1.36 0.36 2.76 0.73 3.1 0.83l0.63 0.17 0.17 0.64c0.09 0.36 2.02 7.52 4.27 15.93 2.25 8.4 4.08 15.27 4.08 15.28 0 0-1.08-0.29-2.39-0.65s-2.39-0.66-2.39-0.65c-0.01 0.01 0.33 1.28 0.75 2.83l0.76 2.82 3.81 1.04 3.81 1.05 14.78-14.79 14.79-14.78-5.41-20.16c-3.37-12.57-5.43-20.17-5.47-20.19-0.03-0.02-9.08-2.46-20.11-5.41-11.02-2.95-20.07-5.38-20.11-5.39zm1.45 5.68c0.03 0 7.19 1.91 15.92 4.25 8.74 2.33 15.88 4.26 15.88 4.27 0 0.02-5.24 5.27-11.64 11.67l-11.64 11.64-15.87-4.24c-8.72-2.34-15.89-4.26-15.93-4.27-0.05-0.02 3.94-4.04 11.58-11.68 6.41-6.4 11.67-11.64 11.7-11.64zm35.43 12.15c0.02 0 1.94 7.15 4.28 15.88 2.34 8.74 4.26 15.91 4.26 15.93 0 0.03-5.25 5.29-11.65 11.69-6.41 6.41-11.66 11.63-11.67 11.61-0.01-0.03-1.94-7.19-4.28-15.93l-4.25-15.89 11.64-11.65c6.41-6.4 11.65-11.64 11.67-11.64zm93.29 13.54c-16.23 0-29.41 13.11-29.41 29.41 0 11.83 7.03 21.98 17.18 26.7 4.08 1.84 8.15 2.71 12.23 2.71 4.95 0 6.71-2.39 6.71-5.03 0-2.48-1.6-4.4-5.43-4.8-3.92-0.4-7.12-1.27-10.15-3.03-6-3.28-9.91-9.35-9.91-16.55 0-10.39 8.39-18.78 18.78-18.78 5.03 0 9.11 1.6 12.31 3.44 2.95 1.59 5.91 1.51 7.35-0.64 1.68-2.4 1.52-5.6-0.72-7.44-6.07-4.95-13.59-5.99-18.94-5.99zm389.4 0c-16.22 0-29.41 13.11-29.41 29.41 0 16.23 13.19 29.41 29.41 29.41 6.96 0 14.95-2.47 20.22-6.23 1.04-0.72 1.84-1.44 2.32-2.4 0.56-1.2 0.56-2.32 0.56-3.75v-12.55c0-2.88-2.32-5.28-5.28-5.28-2.95 0-5.27 2.4-5.27 5.28v11.03c-3.52 2-8.39 3.27-12.55 3.27-10.39 0-18.78-8.39-18.78-18.78s8.39-18.78 18.78-18.78c5.04 0 8.95 1.68 12.31 3.35 2.56 1.36 5.76 1.68 7.35-0.55 1.68-2.4 1.52-5.6-0.72-7.44-6.07-4.95-13.58-5.99-18.94-5.99zm72.45 0c-2.88 0-5.28 2.4-5.28 5.35 0 2.88 2.4 5.28 5.28 5.28 2.95 0 5.35-2.4 5.35-5.28 0-2.95-2.4-5.35-5.35-5.35zm69.15 0c-8.23 0-12.95 3.04-15.51 5.59-2.95 3.04-4.55 6.96-4.55 11.11 0.08 10.95 11.11 14.23 18.46 16.87 8.15 2.96 11.91 5.11 11.91 8.47 0 2.8-1.68 4.79-3.92 5.83-2.87 1.36-5.83 0.4-8.55 0.25-2.64-0.16-4.87 1.67-4.87 5.03 0 4.08 5.59 5.67 9.75 5.67 12.71 0 18.22-8.23 18.22-16.14 0-9.83-9.03-14.15-19.26-18.06-8.31-3.2-11.11-5.36-11.11-7.92 0-3.91 3.75-6.71 9.11-6.71 6.15 0 9.51 3.36 10.95 4.64 2 1.75 4.87 1.99 6.79-0.4 1.44-1.84 1.68-4.4 0.24-6.32-2.07-2.96-8.31-7.91-17.66-7.91zm-483.8 1.44c-2.88 0-5.28 2.39-5.28 5.27v27.1c0 14.94 9.84 25.01 24.38 25.01 16.79 0 24.38-12.94 24.38-25.01v-11.19c0-2.88-2.4-5.28-5.27-5.28-2.96 0-5.36 2.4-5.36 5.28v11.19c0 6.95-3.6 14.38-13.75 14.38-12.47 0-13.74-9.99-13.74-14.38v-27.1c0-2.88-2.4-5.27-5.36-5.27zm38.21 0c-2.96 0-5.36 2.39-5.36 5.27 0 2.96 2.4 5.36 5.36 5.36 2.87 0 5.27-2.4 5.27-5.36 0-2.88-2.4-5.27-5.27-5.27zm34.81 0c-2.88 0-5.28 2.39-5.28 5.27v45.4c0 2.96 2.4 5.28 5.28 5.28 2.96 0 5.36-2.32 5.36-5.28v-18.7h11.59c5.03 0 9.42 2.64 9.42 6.71 0 2.48-0.87 4-1.19 5.44-0.64 2.47 0 4.47 2.39 5.75 2.56 1.36 5.76 0.56 7.2-2 1.52-2.64 2.24-5.59 2.24-9.27 0-5.75-3.68-10.95-8.24-13.11 2.4-1.92 4.88-6.63 4.88-11.59 0-7.59-5.92-13.9-17.03-13.9h-16.54-0.08zm66.2 0c-2.88 0-5.27 2.39-5.27 5.27v45.4c0 2.88 2.39 5.28 5.27 5.28h27.17c2.96 0 5.28-2.4 5.28-5.28 0-2.96-2.32-5.36-5.28-5.36h-21.81v-12.3h18.54c2.96 0 5.27-2.16 5.27-5.04 0-2.96-2.31-5.11-5.27-5.11h-18.54v-12.23h5.67c2.88 0 5.28-2.4 5.28-5.36 0-2.88-2.4-5.27-5.28-5.27h-11.03zm26.94 0c-2.96 0-5.36 2.39-5.36 5.27 0 2.96 2.4 5.36 5.36 5.36 2.87 0 5.27-2.4 5.27-5.36 0-2.88-2.4-5.27-5.27-5.27zm50.37 0c-2.08 0-3.92 1.19-4.8 3.03l-21.58 45.32c-1.19 2.64-0.08 5.84 2.56 7.11 2.64 1.2 5.76 0.09 7.03-2.55l5.04-10.55h26.86c1.84 0 3.43-0.96 4.39-2.4 1.84-2.72 0.4-5.04-0.48-6.87l-14.22-30.06c-0.88-1.84-2.8-3.03-4.8-3.03zm52.75 0c-2.88 0-5.27 2.39-5.27 5.27v45.4c0 2.88 2.39 5.28 5.27 5.28h11.27c2.96 0 5.28-2.4 5.28-5.28 0-2.96-2.32-5.36-5.28-5.36h-5.91v-40.04c0-2.88-2.4-5.27-5.36-5.27zm130.66 3.7c-1.18-0.03-2.38 0.32-3.36 1.09-7.19 5.68-11.35 13.99-11.35 23.1 0 16.31 13.19 29.49 29.42 29.49 16.22 0 29.49-13.18 29.49-29.49 0-9.11-4.16-17.42-11.35-23.1-2.32-1.76-5.68-1.36-7.43 0.96-1.84 2.24-1.44 5.6 0.87 7.44 4.64 3.59 7.28 8.87 7.28 14.7 0 10.39-8.47 18.86-18.86 18.86s-18.79-8.47-18.79-18.86c0-5.83 2.64-11.11 7.2-14.7 2.31-1.84 2.71-5.2 0.96-7.44-1.04-1.3-2.55-2-4.08-2.05zm-617.03 3.22c-0.05-0.01-5.28 5.19-14.85 14.76l-14.78 14.78 5.39 20.12c2.96 11.06 5.4 20.14 5.42 20.18 0.03 0.04 7.42 2.04 20.2 5.46l20.15 5.41 14.78-14.78 14.79-14.78-5.41-20.18-5.41-20.18-7.28-1.98c-4.01-1.09-7.3-1.98-7.3-1.98-0.01 0.01 0.33 1.28 0.75 2.83s0.76 2.82 0.77 2.83c0 0 2 0.56 4.45 1.22 2.44 0.67 4.45 1.23 4.46 1.24 0 0 1.93 7.17 4.27 15.92 2.35 8.76 4.27 15.92 4.26 15.92 0 0.01-7.17-1.91-15.93-4.26-8.75-2.34-15.91-4.26-15.92-4.27 0 0-1.92-7.17-4.27-15.92s-4.26-15.92-4.26-15.93c0.01 0 1.07 0.27 2.37 0.61 1.29 0.34 2.36 0.61 2.37 0.6s-0.32-1.27-0.74-2.8c-0.41-1.53-0.77-2.8-0.79-2.82s-1.7-0.48-3.73-1.01-3.72-0.98-3.76-0.99zm295.47 2.43h10.47c5.51 0 7.99 3.19 7.99 6.63 0 4-3.44 6.55-7.99 6.55h-10.47v-13.18zm-296.11 5.34c0.02 0.01 1.94 7.18 4.28 15.92l4.26 15.88-11.65 11.65c-6.4 6.41-11.65 11.65-11.67 11.65-0.01 0-1.9-7.04-4.21-15.63-2.3-8.6-4.22-15.76-4.26-15.92l-0.08-0.29 11.65-11.64c6.41-6.41 11.66-11.64 11.68-11.62zm434.26 2.89l7.51 15.67h-14.94l7.43-15.67zm127.67 9.59c-2.96 0-5.36 2.4-5.36 5.28 0 2.95 2.4 5.35 5.36 5.35 2.88 0 5.27-2.4 5.27-5.35 0-2.88-2.39-5.28-5.27-5.28zm123.85 12.23c-2.87 0-5.27 2.32-5.27 5.28 0 2.95 2.4 5.27 5.27 5.27 2.96 0 5.36-2.32 5.36-5.27 0-2.96-2.4-5.28-5.36-5.28zm-498.95 2.08c-2.87 0-5.27 2.4-5.27 5.27 0 2.96 2.4 5.36 5.27 5.36 2.96 0 5.36-2.4 5.36-5.36 0-2.87-2.4-5.27-5.36-5.27zm119.82 3.83c-2.95 0-5.27 2.4-5.27 5.36 0 2.88 2.32 5.28 5.27 5.28 2.96 0 5.28-2.4 5.28-5.28 0-2.96-2.32-5.36-5.28-5.36zm149.11 0c-2.88 0-5.27 2.4-5.27 5.36 0 2.88 2.39 5.28 5.27 5.28 2.96 0 5.36-2.4 5.36-5.28 0-2.96-2.4-5.36-5.36-5.36zm58.43 0c-2.96 0-5.28 2.4-5.28 5.36 0 2.88 2.32 5.28 5.28 5.28 2.95 0 5.27-2.4 5.27-5.28 0-2.96-2.32-5.36-5.27-5.36zm-502.03 4.8c0.01 0 7.16 1.91 15.87 4.24s15.87 4.25 15.91 4.27c0.04 0.01-3.87 3.96-11.58 11.67-10.1 10.1-11.67 11.65-11.77 11.64-0.06-0.01-7.23-1.93-15.92-4.25-8.69-2.33-15.81-4.25-15.82-4.26s5.22-5.26 11.63-11.66c6.41-6.41 11.66-11.65 11.68-11.65z"
     fill="#000000" /></svg>