<?xml version="1.0" encoding="UTF-8" standalone="no"?>
<svg
   xmlns:dc="http://purl.org/dc/elements/1.1/"
   xmlns:cc="http://creativecommons.org/ns#"
   xmlns:rdf="http://www.w3.org/1999/02/22-rdf-syntax-ns#"
   xmlns:svg="http://www.w3.org/2000/svg"
   xmlns="http://www.w3.org/2000/svg"
   id="svg22"
   xml:space="preserve"
   viewBox="0 0 1024 768"
   y="0px"
   x="0px"
   version="1.1"><metadata
     id="metadata28"><rdf:RDF><cc:Work
         rdf:about=""><dc:format>image/svg+xml</dc:format><dc:type
           rdf:resource="http://purl.org/dc/dcmitype/StillImage" /></cc:Work></rdf:RDF></metadata><defs
     id="defs26" /><g
     transform="translate(-11.312,0.55844)"
     id="logo-group"><path
       stroke-miterlimit="2"
       class="c1"
       d="m 338.23,400.55 c 3.0373,1.7582 6.2345,2.6373 10.151,3.0373 3.8362,0.39892 5.4351,2.3176 5.4351,4.7956 0,2.6373 -1.7593,5.0351 -6.7142,5.0351 -4.0769,0 -8.1526,-0.87911 -12.228,-2.7175 -10.151,-4.7153 -17.184,-14.867 -17.184,-26.695 0,-16.305 13.188,-29.414 29.413,-29.414 5.3549,0 12.868,1.0395 18.943,5.9955 2.2374,1.8374 2.3978,5.0351 0.71977,7.4329 -1.4395,2.1582 -4.3966,2.2374 -7.3538,0.63955 -3.1967,-1.8384 -7.2735,-3.4373 -12.309,-3.4373 -10.391,0 -18.783,8.3922 -18.783,18.783 1e-5,7.1933 3.9164,13.268 9.9109,16.545 z"
       style="font-variant-ligatures:normal;fill:#b8ddf3;stroke-width:0;stroke-miterlimit:2"
       id="path12" /><path
       stroke-miterlimit="2"
       class="c3"
       d="m 358.13,402.79 c 0,-2.8769 2.3978,-5.2747 5.2758,-5.2747 2.9571,0 5.3549,2.3978 5.3549,5.2747 0,2.9571 -2.3978,5.3549 -5.3549,5.3549 -2.878,-1e-5 -5.2758,-2.3978 -5.2758,-5.3549 z"
       style="font-variant-ligatures:normal;fill:#618dd6;stroke-width:0;stroke-miterlimit:2"
       id="path14" /><path
       stroke-miterlimit="2"
       class="c1"
       d="m 437.78,388.4 c 0,12.069 -7.5933,25.017 -24.378,25.017 -14.547,0 -24.378,-10.071 -24.378,-25.017 v -27.095 c 0,-2.8769 2.3978,-5.2747 5.2758,-5.2747 2.9571,0 5.3549,2.3978 5.3549,5.2747 V 388.4 c 0,4.3956 1.278,14.387 13.747,14.387 10.15,0 13.747,-7.4329 13.747,-14.387 v -11.19 c 0,-2.8769 2.3978,-5.2747 5.356,-5.2747 2.8769,0 5.2747,2.3978 5.2747,5.2747 v 11.19 z"
       style="font-variant-ligatures:normal;fill:#b8ddf3;stroke-width:0;stroke-miterlimit:2"
       id="path17" /><path
       stroke-miterlimit="2"
       class="c3"
       d="m 427.15,361.3 c 0,-2.8769 2.3978,-5.2747 5.356,-5.2747 2.8769,0 5.2747,2.3978 5.2747,5.2747 0,2.9571 -2.3978,5.3549 -5.2747,5.3549 -2.9582,0 -5.356,-2.3978 -5.356,-5.3549 z"
       style="font-variant-ligatures:normal;fill:#618dd6;stroke-width:0;stroke-miterlimit:2"
       id="path19" /><path
       stroke-miterlimit="2"
       class="c1"
       d="m 496.1,381.52 c 2.3978,-1.9186 4.8752,-6.634 4.8752,-11.59 0,-7.5922 -5.9142,-13.906 -17.024,-13.906 h -16.625 c -2.8774,0 -5.2752,2.3978 -5.2752,5.2747 v 45.398 c 0,2.9571 2.3978,5.2758 5.2752,5.2758 2.9571,0 5.3554,-2.3186 5.3554,-5.2758 v -18.703 h 11.589 c 5.0351,0 9.4312,2.6384 9.4312,6.7142 0,2.478 -0.87911,3.9966 -1.1989,5.4351 -0.63955,2.478 0,4.4758 2.3978,5.7549 2.5577,1.3582 5.7549,0.55934 7.1933,-1.9978 1.5187,-2.6384 2.2379,-5.5955 2.2379,-9.2724 0,-5.7538 -3.6763,-10.949 -8.2323,-13.108 z m -12.948,-2.9571 h -10.47 v -13.188 h 10.47 c 5.5148,0 7.9928,3.1967 7.9928,6.634 0,3.9956 -3.4368,6.5538 -7.9928,6.5538 z"
       style="font-variant-ligatures:normal;fill:#b8ddf3;stroke-width:0;stroke-miterlimit:2"
       id="path22" /><path
       stroke-miterlimit="2"
       class="c3"
       d="m 483.23,411.98 c -2.9571,0 -5.2752,-2.3978 -5.2752,-5.2758 0,-2.9571 2.3181,-5.3549 5.2752,-5.3549 2.9576,0 5.2752,2.3978 5.2752,5.3549 0,2.878 -2.3176,5.2758 -5.2752,5.2758 z"
       style="font-variant-ligatures:normal;fill:#618dd6;stroke-width:0;stroke-miterlimit:2"
       id="path24" /><path
       stroke-miterlimit="2"
       class="c1"
       d="m 533.52,411.98 c -2.8769,0 -5.2747,-2.3978 -5.2747,-5.2758 v -45.398 c 0,-2.8769 2.3978,-5.2747 5.2747,-5.2747 h 11.031 c 2.8769,0 5.2747,2.3978 5.2747,5.2747 0,2.9571 -2.3978,5.3549 -5.2747,5.3549 h -5.6746 v 12.23 h 18.543 c 2.9571,0 5.2747,2.1582 5.2747,5.1153 0,2.8769 -2.3176,5.0351 -5.2747,5.0351 h -18.543 v 12.309 h 21.82 c 2.9571,0 5.2747,2.3978 5.2747,5.3549 0,2.878 -2.3176,5.2758 -5.2747,5.2758 z"
       style="font-variant-ligatures:normal;fill:#b8ddf3;stroke-width:0;stroke-miterlimit:2"
       id="path27" /><path
       stroke-miterlimit="2"
       class="c3"
       d="m 560.46,366.66 c -2.9571,0 -5.3549,-2.3978 -5.3549,-5.3549 0,-2.8769 2.3978,-5.2747 5.3549,-5.2747 2.8769,0 5.2747,2.3978 5.2747,5.2747 0,2.9571 -2.3978,5.3549 -5.2747,5.3549 z"
       style="font-variant-ligatures:normal;fill:#618dd6;stroke-width:0;stroke-miterlimit:2"
       id="path29" /><path
       stroke-miterlimit="2"
       class="c1"
       d="m 629.85,389.12 -14.227,-30.052 c -0.87911,-1.8384 -2.7978,-3.0373 -4.7955,-3.0373 -2.078,0 -3.9164,1.1989 -4.7956,3.0373 l -21.58,45.318 c -1.1989,2.6373 -0.0797,5.8351 2.5577,7.1131 2.6373,1.1989 5.7549,0.0802 7.0334,-2.5571 l 5.0356,-10.55 h 26.855 c 1.8384,0 3.4368,-0.95933 4.3961,-2.3978 1.8384,-2.7175 0.39942,-5.0351 -0.47969,-6.8735 z m -26.456,0.15934 7.4334,-15.666 7.5131,15.666 z"
       style="font-variant-ligatures:normal;fill:#b8ddf3;stroke-width:0;stroke-miterlimit:2"
       id="path32" /><path
       stroke-miterlimit="2"
       class="c3"
       d="m 637.69,406.7 c 0,2.878 -2.3978,5.2758 -5.3549,5.2758 -2.8774,0 -5.2752,-2.3978 -5.2752,-5.2758 0,-2.9571 2.3978,-5.3549 5.2752,-5.3549 2.9571,0 5.3549,2.3978 5.3549,5.3549 z"
       style="font-variant-ligatures:normal;fill:#618dd6;stroke-width:0;stroke-miterlimit:2"
       id="path34" /><path
       stroke-miterlimit="2"
       class="c1"
       d="m 674.85,411.98 h -11.269 c -2.878,0 -5.2758,-2.3978 -5.2758,-5.2758 v -45.398 c 0,-2.8769 2.3978,-5.2747 5.2758,-5.2747 2.9571,0 5.3549,2.3978 5.3549,5.2747 v 40.043 h 5.9142 c 2.9571,0 5.2758,2.3978 5.2758,5.3549 -10e-6,2.878 -2.3187,5.2758 -5.2758,5.2758 z"
       style="font-variant-ligatures:normal;fill:#b8ddf3;stroke-width:0;stroke-miterlimit:2"
       id="path37" /><path
       stroke-miterlimit="2"
       class="c3"
       d="m 685.48,406.7 c 0,-2.9571 2.3176,-5.3549 5.2747,-5.3549 2.9571,0 5.2758,2.3978 5.2758,5.3549 0,2.878 -2.3186,5.2758 -5.2758,5.2758 -2.9571,0 -5.2747,-2.3978 -5.2747,-5.2758 z"
       style="font-variant-ligatures:normal;fill:#618dd6;stroke-width:0;stroke-miterlimit:2"
       id="path39" /><path
       stroke-miterlimit="2"
       class="c1"
       d="m 736.5,354.59 c 5.3549,0 12.868,1.0395 18.943,5.9955 2.2374,1.8374 2.3978,5.0351 0.71868,7.4329 -1.5978,2.2374 -4.7956,1.9176 -7.3527,0.55934 -3.3571,-1.678 -7.2735,-3.3571 -12.309,-3.3571 -10.391,0 -18.783,8.3922 -18.783,18.783 0,10.39 8.3922,18.782 18.783,18.782 4.156,0 9.0318,-1.278 12.548,-3.2769 v -11.03 c 0,-2.878 2.3176,-5.2758 5.2747,-5.2758 2.9582,0 5.2758,2.3978 5.2758,5.2758 v 12.548 c 0,1.4384 0,2.5582 -0.55934,3.7571 -0.48021,0.95824 -1.2791,1.678 -2.3186,2.3978 -5.2747,3.756 -13.267,6.234 -20.221,6.234 -16.225,0 -29.414,-13.188 -29.414,-29.413 0,-16.305 13.189,-29.414 29.414,-29.414 z"
       style="font-variant-ligatures:normal;fill:#b8ddf3;stroke-width:0;stroke-miterlimit:2"
       id="path42" /><path
       stroke-miterlimit="2"
       class="c3"
       d="m 738.5,383.2 c 2.8769,0 5.2747,2.3978 5.2747,5.2758 0,2.9571 -2.3978,5.3549 -5.2747,5.3549 -2.9571,0 -5.3549,-2.3978 -5.3549,-5.3549 0,-2.878 2.3978,-5.2758 5.3549,-5.2758 z"
       style="font-variant-ligatures:normal;fill:#618dd6;stroke-width:0;stroke-miterlimit:2"
       id="path44" /><path
       stroke-miterlimit="2"
       class="c1"
       d="m 808.95,413.42 c -16.225,0 -29.414,-13.188 -29.414,-29.493 0,-9.112 4.1571,-17.424 11.35,-23.099 2.2374,-1.7582 5.5944,-1.3593 7.4329,0.95933 1.7582,2.2373 1.3582,5.5944 -0.95932,7.4329 -4.556,3.5966 -7.1933,8.8713 -7.1933,14.706 0,10.39 8.3922,18.862 18.783,18.862 10.39,0 18.862,-8.4724 18.862,-18.862 0,-5.8351 -2.6373,-11.11 -7.2735,-14.706 -2.3176,-1.8384 -2.7176,-5.1955 -0.87911,-7.4329 1.7582,-2.3186 5.1153,-2.7176 7.4329,-0.95933 7.1933,5.6746 11.35,13.987 11.35,23.099 -3e-5,16.305 -13.268,29.493 -29.493,29.493 z"
       style="font-variant-ligatures:normal;fill:#b8ddf3;stroke-width:0;stroke-miterlimit:2"
       id="path47" /><path
       stroke-miterlimit="2"
       class="c3"
       d="m 808.95,354.59 c 2.9571,0 5.3549,2.3978 5.3549,5.356 0,2.8769 -2.3978,5.2747 -5.3549,5.2747 -2.878,0 -5.2758,-2.3978 -5.2758,-5.2747 0,-2.9582 2.3978,-5.356 5.2758,-5.356 z"
       style="font-variant-ligatures:normal;fill:#618dd6;stroke-width:0;stroke-miterlimit:2"
       id="path49" /><path
       stroke-miterlimit="2"
       class="c3"
       d="m 867.71,400.71 c 0,2.9571 -2.3978,5.2758 -5.3549,5.2758 -2.878,0 -5.2758,-2.3186 -5.2758,-5.2758 0,-2.9571 2.3978,-5.2747 5.2758,-5.2747 2.9571,-2e-5 5.3549,2.3175 5.3549,5.2747 z"
       style="font-variant-ligatures:normal;fill:#618dd6;stroke-width:0;stroke-miterlimit:2"
       id="path52" /><path
       stroke-miterlimit="2"
       class="c1"
       d="m 880.82,413.42 c -4.1571,0 -9.7515,-1.5989 -9.7515,-5.6746 0,-3.3571 2.2374,-5.1955 4.8758,-5.0351 2.7176,0.15934 5.6746,1.1187 8.5516,-0.24065 2.2384,-1.0385 3.9164,-3.0373 3.9164,-5.834 0,-3.3571 -3.756,-5.5153 -11.909,-8.4724 -7.3538,-2.6373 -18.383,-5.9142 -18.464,-16.865 0,-4.156 1.5989,-8.0724 4.556,-11.11 2.5582,-2.5582 7.2735,-5.5955 15.506,-5.5955 9.3504,0 15.586,4.956 17.664,7.9131 1.4384,1.9186 1.1989,4.4758 -0.23956,6.3142 -1.9187,2.3978 -4.7956,2.1582 -6.7944,0.39999 -1.4384,-1.2791 -4.7956,-4.6362 -10.949,-4.6362 -5.356,0 -9.112,2.7978 -9.112,6.7142 0,2.5571 2.7978,4.7153 11.11,7.9131 10.231,3.9164 19.262,8.2318 19.262,18.064 0,7.912 -5.5153,16.145 -18.223,16.145 z"
       style="font-variant-ligatures:normal;fill:#b8ddf3;stroke-width:0;stroke-miterlimit:2"
       id="path54" /><path
       style="fill:#618dd6;stroke-width:0.82499999"
       d="m 216.93,323.23 c -0.0454,-0.0138 -5.1507,5.0604 -14.851,14.761 l -14.782,14.782 5.3943,20.137 c 2.9669,11.075 5.4182,20.16 5.4476,20.189 0.0293,0.0285 3.2926,0.91055 7.2516,1.96 3.959,1.0495 7.2048,1.9018 7.2126,1.894 0.008,-0.007 -0.32384,-1.2688 -0.73759,-2.8022 -0.41375,-1.5334 -0.76969,-2.8049 -0.7908,-2.8256 -0.0215,-0.0206 -2.01,-0.55686 -4.4196,-1.1917 -2.4091,-0.63483 -4.3852,-1.1586 -4.3912,-1.1646 -0.006,-0.006 -1.9293,-7.1713 -4.2742,-15.924 -2.3453,-8.7516 -4.26,-15.917 -4.2554,-15.921 0.005,-0.004 5.7778,1.5385 12.829,3.4279 7.0516,1.8894 13.935,3.7334 15.298,4.098 1.3623,0.36467 2.7586,0.73851 3.1027,0.83119 l 0.62567,0.16834 0.17339,0.6486 c 0.0949,0.35641 2.0151,7.5218 4.2664,15.922 2.2513,8.401 4.0898,15.278 4.0856,15.283 -0.004,0.004 -1.0798,-0.28898 -2.3903,-0.65181 -1.3109,-0.36238 -2.3889,-0.65411 -2.3953,-0.64722 -0.007,0.007 0.33072,1.2807 0.74905,2.8311 l 0.76145,2.8196 3.8127,1.0426 3.8132,1.0426 14.78,-14.782 14.784,-14.785 -5.4038,-20.157 c -3.3742,-12.571 -5.4285,-20.172 -5.4698,-20.195 -0.033,-0.0206 -9.0832,-2.4527 -20.114,-5.4054 -11.022,-2.9518 -20.072,-5.3765 -20.114,-5.3881 z m 1.4454,5.6654 c 0.0252,-4.6e-4 7.1928,1.9133 15.928,4.2517 8.7351,2.3389 15.883,4.2641 15.883,4.2783 0,0.0138 -5.2392,5.265 -11.643,11.669 l -11.644,11.643 -15.867,-4.248 c -8.7227,-2.3364 -15.893,-4.2595 -15.929,-4.2718 -0.0445,-0.0157 3.941,-4.0318 11.582,-11.673 6.4094,-6.4061 11.673,-11.648 11.698,-11.649 z m 35.442,12.156 c 0.0133,0 1.9385,7.147 4.2783,15.883 2.3399,8.7351 4.2535,15.904 4.253,15.928 0,0.0252 -5.2406,5.286 -11.646,11.691 -6.4048,6.4048 -11.655,11.627 -11.668,11.605 -0.0124,-0.022 -1.9371,-7.1896 -4.277,-15.929 l -4.2544,-15.889 11.645,-11.645 c 6.402,-6.4053 11.649,-11.645 11.666,-11.645 z m -76.606,21.9 c -0.045,-0.0133 -5.2797,5.1912 -14.848,14.761 l -14.779,14.782 5.3879,20.114 c 2.9632,11.062 5.4044,20.144 5.425,20.18 0.0238,0.0418 7.4144,2.043 20.194,5.4682 l 20.156,5.4021 14.782,-14.78 14.782,-14.78 -5.4067,-20.18 -5.4062,-20.18 -7.2883,-1.9807 c -4.0086,-1.0889 -7.2928,-1.977 -7.2984,-1.9729 -0.006,0.004 0.3321,1.2756 0.75044,2.8256 0.41833,1.5504 0.76465,2.8233 0.76924,2.8283 0.005,0.006 2.0077,0.55733 4.4512,1.2265 2.444,0.66924 4.4494,1.2234 4.4572,1.2312 0.007,0.008 1.9334,7.1754 4.2788,15.928 2.3453,8.7524 4.2604,15.917 4.2558,15.92 -0.005,0.003 -7.1709,-1.9128 -15.925,-4.2582 -8.7541,-2.3458 -15.92,-4.2682 -15.924,-4.2718 -0.004,-0.003 -1.926,-7.1695 -4.2718,-15.924 -2.3458,-8.7541 -4.2618,-15.921 -4.2581,-15.926 0.004,-0.005 1.0683,0.26834 2.365,0.60732 1.2963,0.33898 2.365,0.60869 2.3743,0.59952 0.01,-0.009 -0.32155,-1.2702 -0.73621,-2.8013 -0.4125,-1.5304 -0.7689,-2.8009 -0.79118,-2.8215 -0.0223,-0.0206 -1.7012,-0.47437 -3.7323,-1.0082 -2.0312,-0.53295 -3.724,-0.97845 -3.762,-0.99 z m -0.63713,7.7662 c 0.0161,0.0183 1.9444,7.1828 4.2847,15.921 l 4.2554,15.888 -11.646,11.646 c -6.4061,6.4102 -11.656,11.649 -11.67,11.649 -0.0124,0 -1.9072,-7.0337 -4.2109,-15.63 -2.3032,-8.5965 -4.2224,-15.76 -4.2645,-15.918 l -0.0767,-0.28875 11.648,-11.644 c 6.407,-6.407 11.662,-11.634 11.679,-11.616 z m 12.158,35.421 c 0.0165,0 7.1584,1.9096 15.871,4.2439 8.7128,2.3338 15.871,4.2544 15.908,4.2677 0.0445,0.0161 -3.8654,3.9577 -11.582,11.675 -10.096,10.098 -11.664,11.649 -11.764,11.634 -0.0628,-0.009 -7.2254,-1.9224 -15.917,-4.2512 -8.6913,-2.3288 -15.812,-4.243 -15.824,-4.253 -0.0115,-0.0106 5.2209,-5.2609 11.628,-11.668 6.4071,-6.4071 11.662,-11.649 11.679,-11.649 z"
       id="icon" /></g></svg>