<?xml version="1.0" encoding="UTF-8" standalone="no"?>
<svg
   xmlns:dc="http://purl.org/dc/elements/1.1/"
   xmlns:cc="http://creativecommons.org/ns#"
   xmlns:rdf="http://www.w3.org/1999/02/22-rdf-syntax-ns#"
   xmlns:svg="http://www.w3.org/2000/svg"
   xmlns="http://www.w3.org/2000/svg"
   id="svg13"
   xml:space="preserve"
   viewBox="0 0 1024 768"
   height="768"
   width="1024"
   version="1.1"><metadata
     id="metadata17"><rdf:RDF><cc:Work
         rdf:about=""><dc:format>image/svg+xml</dc:format><dc:type
           rdf:resource="http://purl.org/dc/dcmitype/StillImage" /></cc:Work></rdf:RDF></metadata><desc
     id="desc2">Created with Fabric.js 5.3.0</desc><defs
     id="defs4" /><g
     id="backgroundElement"
     transform="translate(512.5,384.5)"><path
       id="rect6"
       d="M -512,-384 H 512 V 384 H -512 Z"
       style="opacity:1;fill:#ffffff;fill-opacity:0;fill-rule:nonzero;stroke:none;stroke-width:1;stroke-linecap:butt;stroke-linejoin:miter;stroke-miterlimit:4;stroke-dasharray:none;stroke-dashoffset:0" /></g><g
     id="g11"
     transform="matrix(1.34,0,0,1.34,511.79,383.97)"><path
       id="path9"
       d="m 205.62,323.78 v 0.01 c -0.05,-0.02 -5.15,5.06 -14.85,14.76 l -14.79,14.78 5.4,20.14 c 2.96,11.07 5.42,20.16 5.45,20.18 0.03,0.03 3.29,0.92 7.25,1.97 3.96,1.04 7.2,1.9 7.21,1.89 0.01,-0.01 -0.32,-1.27 -0.74,-2.8 -0.41,-1.54 -0.77,-2.81 -0.79,-2.83 -0.02,-0.02 -2.01,-0.56 -4.42,-1.19 -2.41,-0.64 -4.38,-1.16 -4.39,-1.16 0,-0.01 -1.93,-7.18 -4.27,-15.93 -2.35,-8.75 -4.26,-15.92 -4.26,-15.92 0.01,0 5.78,1.54 12.83,3.43 7.05,1.89 13.93,3.73 15.3,4.1 1.36,0.36 2.76,0.73 3.1,0.83 l 0.63,0.17 0.17,0.64 c 0.09,0.36 2.02,7.52 4.27,15.93 2.25,8.4 4.08,15.27 4.08,15.28 0,0 -1.08,-0.29 -2.39,-0.65 -1.31,-0.36 -2.39,-0.66 -2.39,-0.65 -0.01,0.01 0.33,1.28 0.75,2.83 l 0.76,2.82 3.81,1.04 3.81,1.05 14.78,-14.79 14.79,-14.78 -5.41,-20.16 c -3.37,-12.57 -5.43,-20.17 -5.47,-20.19 -0.03,-0.02 -9.08,-2.46 -20.11,-5.41 -11.02,-2.95 -20.07,-5.38 -20.11,-5.39 z m 1.45,5.68 c 0.03,0 7.19,1.91 15.92,4.25 8.74,2.33 15.88,4.26 15.88,4.27 0,0.02 -5.24,5.27 -11.64,11.67 l -11.64,11.64 -15.87,-4.24 c -8.72,-2.34 -15.89,-4.26 -15.93,-4.27 -0.05,-0.02 3.94,-4.04 11.58,-11.68 6.41,-6.4 11.67,-11.64 11.7,-11.64 z m 35.43,12.15 c 0.02,0 1.94,7.15 4.28,15.88 2.34,8.74 4.26,15.91 4.26,15.93 0,0.03 -5.25,5.29 -11.65,11.69 -6.41,6.41 -11.66,11.63 -11.67,11.61 -0.01,-0.03 -1.94,-7.19 -4.28,-15.93 l -4.25,-15.89 11.64,-11.65 c 6.41,-6.4 11.65,-11.64 11.67,-11.64 z m 93.29,13.54 c -16.23,0 -29.41,13.11 -29.41,29.41 0,11.83 7.03,21.98 17.18,26.7 4.08,1.84 8.15,2.71 12.23,2.71 4.95,0 6.71,-2.39 6.71,-5.03 0,-2.48 -1.6,-4.4 -5.43,-4.8 -3.92,-0.4 -7.12,-1.27 -10.15,-3.03 -6,-3.28 -9.91,-9.35 -9.91,-16.55 0,-10.39 8.39,-18.78 18.78,-18.78 5.03,0 9.11,1.6 12.31,3.44 2.95,1.59 5.91,1.51 7.35,-0.64 1.68,-2.4 1.52,-5.6 -0.72,-7.44 -6.07,-4.95 -13.59,-5.99 -18.94,-5.99 z m 389.4,0 c -16.22,0 -29.41,13.11 -29.41,29.41 0,16.23 13.19,29.41 29.41,29.41 6.96,0 14.95,-2.47 20.22,-6.23 1.04,-0.72 1.84,-1.44 2.32,-2.4 0.56,-1.2 0.56,-2.32 0.56,-3.75 v -12.55 c 0,-2.88 -2.32,-5.28 -5.28,-5.28 -2.95,0 -5.27,2.4 -5.27,5.28 v 11.03 c -3.52,2 -8.39,3.27 -12.55,3.27 -10.39,0 -18.78,-8.39 -18.78,-18.78 0,-10.39 8.39,-18.78 18.78,-18.78 5.04,0 8.95,1.68 12.31,3.35 2.56,1.36 5.76,1.68 7.35,-0.55 1.68,-2.4 1.52,-5.6 -0.72,-7.44 -6.07,-4.95 -13.58,-5.99 -18.94,-5.99 z m 72.45,0 c -2.88,0 -5.28,2.4 -5.28,5.35 0,2.88 2.4,5.28 5.28,5.28 2.95,0 5.35,-2.4 5.35,-5.28 0,-2.95 -2.4,-5.35 -5.35,-5.35 z m 69.15,0 c -8.23,0 -12.95,3.04 -15.51,5.59 -2.95,3.04 -4.55,6.96 -4.55,11.11 0.08,10.95 11.11,14.23 18.46,16.87 8.15,2.96 11.91,5.11 11.91,8.47 0,2.8 -1.68,4.79 -3.92,5.83 -2.87,1.36 -5.83,0.4 -8.55,0.25 -2.64,-0.16 -4.87,1.67 -4.87,5.03 0,4.08 5.59,5.67 9.75,5.67 12.71,0 18.22,-8.23 18.22,-16.14 0,-9.83 -9.03,-14.15 -19.26,-18.06 -8.31,-3.2 -11.11,-5.36 -11.11,-7.92 0,-3.91 3.75,-6.71 9.11,-6.71 6.15,0 9.51,3.36 10.95,4.64 2,1.75 4.87,1.99 6.79,-0.4 1.44,-1.84 1.68,-4.4 0.24,-6.32 -2.07,-2.96 -8.31,-7.91 -17.66,-7.91 z m -483.8,1.44 c -2.88,0 -5.28,2.39 -5.28,5.27 v 27.1 c 0,14.94 9.84,25.01 24.38,25.01 16.79,0 24.38,-12.94 24.38,-25.01 v -11.19 c 0,-2.88 -2.4,-5.28 -5.27,-5.28 -2.96,0 -5.36,2.4 -5.36,5.28 v 11.19 c 0,6.95 -3.6,14.38 -13.75,14.38 -12.47,0 -13.74,-9.99 -13.74,-14.38 v -27.1 c 0,-2.88 -2.4,-5.27 -5.36,-5.27 z m 38.21,0 c -2.96,0 -5.36,2.39 -5.36,5.27 0,2.96 2.4,5.36 5.36,5.36 2.87,0 5.27,-2.4 5.27,-5.36 0,-2.88 -2.4,-5.27 -5.27,-5.27 z m 34.81,0 c -2.88,0 -5.28,2.39 -5.28,5.27 v 45.4 c 0,2.96 2.4,5.28 5.28,5.28 2.96,0 5.36,-2.32 5.36,-5.28 v -18.7 h 11.59 c 5.03,0 9.42,2.64 9.42,6.71 0,2.48 -0.87,4 -1.19,5.44 -0.64,2.47 0,4.47 2.39,5.75 2.56,1.36 5.76,0.56 7.2,-2 1.52,-2.64 2.24,-5.59 2.24,-9.27 0,-5.75 -3.68,-10.95 -8.24,-13.11 2.4,-1.92 4.88,-6.63 4.88,-11.59 0,-7.59 -5.92,-13.9 -17.03,-13.9 h -16.54 z m 66.2,0 c -2.88,0 -5.27,2.39 -5.27,5.27 v 45.4 c 0,2.88 2.39,5.28 5.27,5.28 h 27.17 c 2.96,0 5.28,-2.4 5.28,-5.28 0,-2.96 -2.32,-5.36 -5.28,-5.36 h -21.81 v -12.3 h 18.54 c 2.96,0 5.27,-2.16 5.27,-5.04 0,-2.96 -2.31,-5.11 -5.27,-5.11 h -18.54 v -12.23 h 5.67 c 2.88,0 5.28,-2.4 5.28,-5.36 0,-2.88 -2.4,-5.27 -5.28,-5.27 z m 26.94,0 c -2.96,0 -5.36,2.39 -5.36,5.27 0,2.96 2.4,5.36 5.36,5.36 2.87,0 5.27,-2.4 5.27,-5.36 0,-2.88 -2.4,-5.27 -5.27,-5.27 z m 50.37,0 c -2.08,0 -3.92,1.19 -4.8,3.03 l -21.58,45.32 c -1.19,2.64 -0.08,5.84 2.56,7.11 2.64,1.2 5.76,0.09 7.03,-2.55 l 5.04,-10.55 h 26.86 c 1.84,0 3.43,-0.96 4.39,-2.4 1.84,-2.72 0.4,-5.04 -0.48,-6.87 l -14.22,-30.06 c -0.88,-1.84 -2.8,-3.03 -4.8,-3.03 z m 52.75,0 c -2.88,0 -5.27,2.39 -5.27,5.27 v 45.4 c 0,2.88 2.39,5.28 5.27,5.28 h 11.27 c 2.96,0 5.28,-2.4 5.28,-5.28 0,-2.96 -2.32,-5.36 -5.28,-5.36 h -5.91 v -40.04 c 0,-2.88 -2.4,-5.27 -5.36,-5.27 z m 130.66,3.7 c -1.18,-0.03 -2.38,0.32 -3.36,1.09 -7.19,5.68 -11.35,13.99 -11.35,23.1 0,16.31 13.19,29.49 29.42,29.49 16.22,0 29.49,-13.18 29.49,-29.49 0,-9.11 -4.16,-17.42 -11.35,-23.1 -2.32,-1.76 -5.68,-1.36 -7.43,0.96 -1.84,2.24 -1.44,5.6 0.87,7.44 4.64,3.59 7.28,8.87 7.28,14.7 0,10.39 -8.47,18.86 -18.86,18.86 -10.39,0 -18.79,-8.47 -18.79,-18.86 0,-5.83 2.64,-11.11 7.2,-14.7 2.31,-1.84 2.71,-5.2 0.96,-7.44 -1.04,-1.3 -2.55,-2 -4.08,-2.05 z m -617.03,3.22 c -0.05,-0.01 -5.28,5.19 -14.85,14.76 l -14.78,14.78 5.39,20.12 c 2.96,11.06 5.4,20.14 5.42,20.18 0.03,0.04 7.42,2.04 20.2,5.46 l 20.15,5.41 14.78,-14.78 14.79,-14.78 -5.41,-20.18 -5.41,-20.18 -7.28,-1.98 c -4.01,-1.09 -7.3,-1.98 -7.3,-1.98 -0.01,0.01 0.33,1.28 0.75,2.83 0.42,1.55 0.76,2.82 0.77,2.83 0,0 2,0.56 4.45,1.22 2.44,0.67 4.45,1.23 4.46,1.24 0,0 1.93,7.17 4.27,15.92 2.35,8.76 4.27,15.92 4.26,15.92 0,0.01 -7.17,-1.91 -15.93,-4.26 -8.75,-2.34 -15.91,-4.26 -15.92,-4.27 0,0 -1.92,-7.17 -4.27,-15.92 -2.35,-8.75 -4.26,-15.92 -4.26,-15.93 0.01,0 1.07,0.27 2.37,0.61 1.29,0.34 2.36,0.61 2.37,0.6 0.01,-0.01 -0.32,-1.27 -0.74,-2.8 -0.41,-1.53 -0.77,-2.8 -0.79,-2.82 -0.02,-0.02 -1.7,-0.48 -3.73,-1.01 -2.03,-0.53 -3.72,-0.98 -3.76,-0.99 z m 295.47,2.43 h 10.47 c 5.51,0 7.99,3.19 7.99,6.63 0,4 -3.44,6.55 -7.99,6.55 h -10.47 z m -296.11,5.34 c 0.02,0.01 1.94,7.18 4.28,15.92 l 4.26,15.88 -11.65,11.65 c -6.4,6.41 -11.65,11.65 -11.67,11.65 -0.01,0 -1.9,-7.04 -4.21,-15.63 -2.3,-8.6 -4.22,-15.76 -4.26,-15.92 l -0.08,-0.29 11.65,-11.64 c 6.41,-6.41 11.66,-11.64 11.68,-11.62 z m 434.26,2.89 7.51,15.67 h -14.94 z m 127.67,9.59 c -2.96,0 -5.36,2.4 -5.36,5.28 0,2.95 2.4,5.35 5.36,5.35 2.88,0 5.27,-2.4 5.27,-5.35 0,-2.88 -2.39,-5.28 -5.27,-5.28 z m 123.85,12.23 c -2.87,0 -5.27,2.32 -5.27,5.28 0,2.95 2.4,5.27 5.27,5.27 2.96,0 5.36,-2.32 5.36,-5.27 0,-2.96 -2.4,-5.28 -5.36,-5.28 z m -498.95,2.08 c -2.87,0 -5.27,2.4 -5.27,5.27 0,2.96 2.4,5.36 5.27,5.36 2.96,0 5.36,-2.4 5.36,-5.36 0,-2.87 -2.4,-5.27 -5.36,-5.27 z m 119.82,3.83 c -2.95,0 -5.27,2.4 -5.27,5.36 0,2.88 2.32,5.28 5.27,5.28 2.96,0 5.28,-2.4 5.28,-5.28 0,-2.96 -2.32,-5.36 -5.28,-5.36 z m 149.11,0 c -2.88,0 -5.27,2.4 -5.27,5.36 0,2.88 2.39,5.28 5.27,5.28 2.96,0 5.36,-2.4 5.36,-5.28 0,-2.96 -2.4,-5.36 -5.36,-5.36 z m 58.43,0 c -2.96,0 -5.28,2.4 -5.28,5.36 0,2.88 2.32,5.28 5.28,5.28 2.95,0 5.27,-2.4 5.27,-5.28 0,-2.96 -2.32,-5.36 -5.27,-5.36 z m -502.03,4.8 c 0.01,0 7.16,1.91 15.87,4.24 8.71,2.33 15.87,4.25 15.91,4.27 0.04,0.01 -3.87,3.96 -11.58,11.67 -10.1,10.1 -11.67,11.65 -11.77,11.64 -0.06,-0.01 -7.23,-1.93 -15.92,-4.25 -8.69,-2.33 -15.81,-4.25 -15.82,-4.26 -0.01,-0.01 5.22,-5.26 11.63,-11.66 6.41,-6.41 11.66,-11.65 11.68,-11.65 z"
       transform="translate(-512,-384)"
       style="opacity:1;fill:#ffffff;fill-rule:nonzero;stroke:none;stroke-width:1;stroke-linecap:butt;stroke-linejoin:miter;stroke-miterlimit:4;stroke-dasharray:none;stroke-dashoffset:0" /></g></svg>